<?xml version="1.0" encoding="UTF-8"?><svg xmlns="http://www.w3.org/2000/svg" viewBox="0 0 1000 1000" width="1000" height="1000">
  <defs>
    <linearGradient id="g" x1="0" y1="0" x2="1" y2="1"><stop offset="0" stop-color="#2a6cff"/><stop offset="1" stop-color="#0a1432"/></linearGradient>
    <radialGradient id="glow" cx="50%" cy="50%" r="50%"><stop offset="0" stop-color="#9be7ff" stop-opacity=".9"/><stop offset="1" stop-color="#9be7ff" stop-opacity="0"/></radialGradient>
  </defs>
  <rect width="1000" height="1000" rx="72" fill="url(#g)"/>
  <circle cx="500" cy="320" r="220" fill="url(#glow)"/>
  <g fill="none" stroke="#89d8ff" stroke-width="10" opacity=".55"><circle cx="500" cy="320" r="150"/><circle cx="500" cy="320" r="190"/><circle cx="500" cy="320" r="235"/></g>
  <g fill="#fff"><path d="M145 210l24 54 54 24-54 24-24 54-24-54-54-24 54-24z" opacity=".9"/><path d="M840 230l14 31 31 14-31 14-14 31-14-31-31-14 31-14z" opacity=".85"/><path d="M804 740l24 54 54 24-54 24-24 54-24-54-54-24 54-24z" opacity=".8"/></g>
  <text x="500" y="410" text-anchor="middle" font-family="Arial, Helvetica, sans-serif" font-size="104" font-weight="900" letter-spacing="2" fill="#e8fbff" stroke="#08122b" stroke-width="12" paint-order="stroke">HI IM</text>
  <text x="500" y="560" text-anchor="middle" font-family="Arial, Helvetica, sans-serif" font-size="132" font-weight="900" letter-spacing="4" fill="#ffffff" stroke="#08122b" stroke-width="14" paint-order="stroke">SKATE</text>
  <rect x="280" y="648" width="440" height="82" rx="41" fill="#ffe85c" transform="rotate(-7 500 689)"/>
  <text x="500" y="706" text-anchor="middle" font-family="Arial, Helvetica, sans-serif" font-size="44" font-weight="800" fill="#132a76" transform="rotate(-7 500 689)">LET'S COLLAB.</text>
  <text x="500" y="835" text-anchor="middle" font-family="Arial, Helvetica, sans-serif" font-size="44" font-weight="700" letter-spacing="3" fill="#bdefff">BYSKATE.COM</text>
  <text x="500" y="885" text-anchor="middle" font-family="Arial, Helvetica, sans-serif" font-size="24" font-weight="700" letter-spacing="4" fill="#8cd2ff">BUILDING FUN + EXCITING INTERNET THINGS</text>
</svg>