<?xml version="1.0" encoding="UTF-8"?><svg xmlns="http://www.w3.org/2000/svg" viewBox="0 0 1000 1000" width="1000" height="1000">
      <rect width="1000" height="1000" rx="72" fill="#050505"/>
      <g transform="translate(500 455)">
        <path d="M-210 35L0-135l210 170-210 170z" fill="none" stroke="#4ab7ff" stroke-width="12"/>
        <path d="M-120 15L0-95l120 110-120 110z" fill="none" stroke="#4ab7ff" stroke-width="12" opacity=".8"/>
        <path d="M0-135V205" stroke="#4ab7ff" stroke-width="10" stroke-dasharray="14 14" opacity=".55"/>
        <path d="M-210 35H210" stroke="#4ab7ff" stroke-width="10" stroke-dasharray="14 14" opacity=".55"/>
        <path d="M-120 15H120" stroke="#4ab7ff" stroke-width="10" stroke-dasharray="14 14" opacity=".55"/>
        <path d="M-70 -55h140v115h-140z" fill="#ff5da8"/>
        <path d="M-105 -40c0-45 31-70 70-70h70c39 0 70 25 70 70v70h-210z" fill="#ff5da8"/>
        <path d="M-55 -123h110v25h-110z" fill="#fff" opacity=".85"/>
      </g>
      <g transform="translate(770 410)" stroke="#d9fffb" stroke-width="8"><path d="M0 0h120M0 40h120M0 80h120M0 120h120"/><path d="M0 0v140"/></g>
      <text x="500" y="780" text-anchor="middle" font-family="Arial, Helvetica, sans-serif" font-size="70" font-weight="900" fill="#4ab7ff">PRINT</text>
      <text x="500" y="860" text-anchor="middle" font-family="Arial, Helvetica, sans-serif" font-size="74" font-weight="900" fill="#ff5da8">YOUR FIT</text>
    </svg>