<?xml version="1.0" encoding="UTF-8"?><svg xmlns="http://www.w3.org/2000/svg" viewBox="0 0 1000 1000" width="1000" height="1000">
  <defs>
    <linearGradient id="bg" x1="0" y1="0" x2="1" y2="1"><stop offset="0" stop-color="#ff72b8"/><stop offset="1" stop-color="#34d1c4"/></linearGradient>
    <radialGradient id="g1" cx="50%" cy="50%" r="50%"><stop offset="0" stop-color="#fff7ff" stop-opacity=".95"/><stop offset="1" stop-color="#fff7ff" stop-opacity="0"/></radialGradient>
  </defs>
  <rect width="1000" height="1000" rx="72" fill="url(#bg)"/>
  <circle cx="500" cy="430" r="320" fill="url(#g1)" opacity=".75"/>
  <g fill="none" stroke="#ffebf5" stroke-width="12" opacity=".7"><circle cx="500" cy="430" r="170"/><circle cx="500" cy="430" r="220"/><circle cx="500" cy="430" r="270"/></g>
  <path d="M500 285c130 0 235 65 235 145s-105 145-235 145-235-65-235-145 105-145 235-145z" fill="#fff" opacity=".92"/>
  <circle cx="500" cy="430" r="98" fill="#1d2141"/>
  <circle cx="500" cy="430" r="56" fill="#79f6ff"/>
  <circle cx="522" cy="410" r="12" fill="#fff"/>
  <path d="M420 660c0-40 38-70 80-70h0c42 0 80 30 80 70" fill="none" stroke="#1d2141" stroke-width="28" stroke-linecap="round"/>
  <text x="500" y="165" text-anchor="middle" font-family="Arial, Helvetica, sans-serif" font-size="90" font-weight="900" letter-spacing="4" fill="#fff">RIDE OR EYE</text>
  <text x="500" y="850" text-anchor="middle" font-family="Arial, Helvetica, sans-serif" font-size="54" font-weight="800" letter-spacing="3" fill="#0f1733">THIRD EYE</text>
</svg>